<?xml version="1.0" encoding="UTF-8" standalone="no"?>
<svg
   xmlns:dc="http://purl.org/dc/elements/1.1/"
   xmlns:cc="http://creativecommons.org/ns#"
   xmlns:rdf="http://www.w3.org/1999/02/22-rdf-syntax-ns#"
   xmlns:svg="http://www.w3.org/2000/svg"
   xmlns="http://www.w3.org/2000/svg"
   xmlns:xlink="http://www.w3.org/1999/xlink"
   xmlns:sodipodi="http://sodipodi.sourceforge.net/DTD/sodipodi-0.dtd"
   xmlns:inkscape="http://www.inkscape.org/namespaces/inkscape"
   version="1.1"
   id="svg10"
   xml:space="preserve"
   width="793.70074"
   height="1122.5197"
   viewBox="0 0 793.70074 1122.5197"
   sodipodi:docname="drawingsimonays2.svg"
   inkscape:version="1.0.1 (3bc2e813f5, 2020-09-07)"><metadata
     id="metadata16"><rdf:RDF><cc:Work
         rdf:about=""><dc:format>image/svg+xml</dc:format><dc:type
           rdf:resource="http://purl.org/dc/dcmitype/StillImage" /><dc:title></dc:title></cc:Work></rdf:RDF></metadata><defs
     id="defs14"><inkscape:perspective
       sodipodi:type="inkscape:persp3d"
       inkscape:vp_x="0 : 561.25985 : 1"
       inkscape:vp_y="0 : 1000 : 0"
       inkscape:vp_z="793.70074 : 561.25985 : 1"
       inkscape:persp3d-origin="396.85037 : 374.17323 : 1"
       id="perspective84" /><clipPath
       clipPathUnits="userSpaceOnUse"
       id="clipPath28"><path
         d="M 0,0 H 596 V 842 H 0 Z"
         id="path26" /></clipPath><linearGradient
       inkscape:collect="always"
       xlink:href="#linearGradient56"
       id="linearGradient58"
       x1="638.7984"
       y1="411.17535"
       x2="671.96503"
       y2="451.83856"
       gradientUnits="userSpaceOnUse"
       gradientTransform="matrix(0.75000002,0,0,0.75000002,-2.0748411e-6,-2.9761793e-5)" /><linearGradient
       inkscape:collect="always"
       id="linearGradient56"><stop
         style="stop-color:#0000ff;stop-opacity:1;"
         offset="0"
         id="stop52" /><stop
         style="stop-color:#ff00ff;stop-opacity:1"
         offset="1"
         id="stop54" /></linearGradient></defs><sodipodi:namedview
     pagecolor="#ffffff"
     bordercolor="#666666"
     borderopacity="1"
     objecttolerance="10"
     gridtolerance="10"
     guidetolerance="10"
     inkscape:pageopacity="0"
     inkscape:pageshadow="2"
     inkscape:window-width="1920"
     inkscape:window-height="1001"
     id="namedview12"
     showgrid="false"
     inkscape:lockguides="true"
     inkscape:zoom="0.71357325"
     inkscape:cx="379.51943"
     inkscape:cy="532.15079"
     inkscape:window-x="-9"
     inkscape:window-y="-9"
     inkscape:window-maximized="1"
     inkscape:current-layer="g20" /><g
     id="g18"
     inkscape:groupmode="layer"
     inkscape:label="drawingsimonays"
     transform="matrix(1.3333333,0,0,1.3333333,0,3.3396326e-5)"><g
       id="g20"><g
         id="g22"><g
           id="g24" /><g
           id="g58"><g
             clip-path="url(#clipPath28)"
             id="g56"><g
               id="g54"><g
                 id="g32"><path
                   d="m 24.652,116.914 h 14.364 v -8.789 h 29.855 v 8.789 h 28.727 v -8.789 h 29.855 v 8.789 h 28.727 v -8.789 h 29.855 v 8.789 h 28.727 v -8.789 h 29.859 v 8.789 h 28.723 v -8.789 h 29.859 v 8.789 h 28.723 v -8.789 h 29.859 v 8.789 h 14.363 v 7.746 h 8.786 v 16.629 h -8.786 v 15.496 h 8.786 v 16.633 h -8.786 v 15.496 h 8.786 v 16.629 h -8.786 v 7.746 h -14.363 v 8.789 h -29.859 v -8.789 h -28.723 v 8.789 h -29.859 v -8.789 h -28.723 v 8.789 h -29.859 v -8.789 h -28.727 v 8.789 H 156.18 v -8.789 h -28.727 v 8.789 H 97.598 v -8.789 H 68.871 v 8.789 H 39.016 v -8.789 H 24.652 v -7.746 h -8.789 v -16.629 h 8.789 v -15.496 h -8.789 v -16.633 h 8.789 V 141.289 H 15.863 V 124.66 h 8.789 v -7.746"
                   style="fill:none;stroke:#0000ff;stroke-width:0.283465;stroke-linecap:butt;stroke-linejoin:miter;stroke-miterlimit:4;stroke-dasharray:none;stroke-opacity:1"
                   id="path30" /></g><g
                 id="g36"><path
                   d="m 15.863,239.652 v -8.785 h 23.719 v 8.785 h 28.723 v -8.785 h 29.859 v 8.785 h 28.723 v -8.785 h 29.859 v 8.785 h 28.723 v -8.785 h 29.859 v 8.785 h 28.727 v -8.785 h 29.855 v 8.785 h 28.727 v -8.785 h 29.855 v 8.785 h 28.727 v -8.785 h 23.715 v 18.141 h -8.786 v 17.574 h 25.286 v 18.707 h -25.286 v 17.578 h 8.786 v 18.707 h -8.786 v 17.574 h 8.786 v 18.711 h -8.786 v 17.575 h 8.786 v 18.707 h -8.786 v 17.574 h 8.786 v 18.144 h -23.715 v -8.789 h -28.727 v 8.789 H 302.637 V 421.07 H 273.91 v 8.789 h -29.855 v -8.789 h -28.727 v 8.789 h -29.859 v -8.789 h -28.723 v 8.789 H 126.887 V 421.07 H 98.164 v 8.789 H 68.305 V 421.07 H 39.582 v 8.789 H 15.863 v -18.144 h 8.789 v -17.574 h -8.789 v -18.707 h 8.789 v -17.575 h -8.789 v -18.711 h 8.789 v -17.574 h -8.789 v -18.707 h 8.789 V 285.289 H 0.863 l -0.75,-18.707 h 24.539 v -17.574 h -8.789 v -9.356"
                   style="fill:none;stroke:#0000ff;stroke-width:0.283465;stroke-linecap:butt;stroke-linejoin:miter;stroke-miterlimit:4;stroke-dasharray:none;stroke-opacity:1"
                   id="path34" /></g><g
                 id="g40"><path
                   d="m 24.652,447.434 h 14.364 v -8.789 h 29.855 v 8.789 h 28.727 v -8.789 h 29.855 v 8.789 h 28.727 v -8.789 h 29.855 v 8.789 h 28.727 v -8.789 h 29.859 v 8.789 h 28.723 v -8.789 h 29.859 v 8.789 h 28.723 v -8.789 h 29.859 v 8.789 h 14.363 v 7.746 h 8.786 v 16.629 h -8.786 v 15.496 h 8.786 v 16.633 h -8.786 v 15.496 h 8.786 v 16.629 h -8.786 v 7.746 h -14.363 v 8.789 h -29.859 v -8.789 h -28.723 v 8.789 h -29.859 v -8.789 h -28.723 v 8.789 h -29.859 v -8.789 h -28.727 v 8.789 H 156.18 v -8.789 h -28.727 v 8.789 H 97.598 v -8.789 H 68.871 v 8.789 H 39.016 v -8.789 H 24.652 v -7.746 h -8.789 v -16.629 h 8.789 v -15.496 h -8.789 v -16.633 h 8.789 V 471.809 H 15.863 V 455.18 h 8.789 v -7.746"
                   style="fill:none;stroke:#0000ff;stroke-width:0.283465;stroke-linecap:butt;stroke-linejoin:miter;stroke-miterlimit:4;stroke-dasharray:none;stroke-opacity:1"
                   id="path38" /></g><g
                 id="g44"><path
                   d="m 15.863,570.172 v -8.785 h 23.719 v 8.785 h 28.723 v -8.785 h 29.859 v 8.785 h 28.723 v -8.785 h 29.859 v 8.785 h 28.723 v -8.785 h 29.859 v 8.785 h 28.727 v -8.785 h 29.855 v 8.785 h 28.727 v -8.785 h 29.855 v 8.785 h 28.727 v -8.785 h 23.715 v 18.14 h -8.786 v 17.575 h 8.786 v 18.707 h -8.786 v 17.578 h 8.786 v 18.707 h -8.786 v 17.574 h 8.786 v 18.711 h -8.786 v 17.574 h 8.786 v 18.707 h -8.786 v 17.574 h 8.786 v 18.145 h -23.715 v -8.789 h -28.727 v 8.789 H 302.637 V 751.59 H 273.91 v 8.789 h -29.855 v -8.789 h -28.727 v 8.789 h -29.859 v -8.789 h -28.723 v 8.789 H 126.887 V 751.59 H 98.164 v 8.789 H 68.305 V 751.59 H 39.582 v 8.789 H 15.863 v -18.145 h 8.789 V 724.66 h -8.789 v -18.707 h 8.789 v -17.574 h -8.789 v -18.711 h 8.789 v -17.574 h -8.789 v -18.707 h 8.789 v -17.578 h -8.789 v -18.707 h 8.789 v -17.575 h -8.789 v -9.355"
                   style="fill:none;stroke:#0000ff;stroke-width:0.283465;stroke-linecap:butt;stroke-linejoin:miter;stroke-miterlimit:4;stroke-dasharray:none;stroke-opacity:1"
                   id="path42" /></g><g
                 id="g48"><path
                   d="m 393.723,116.914 h 17.574 v -8.789 h 18.707 v 8.789 h 17.578 v -8.789 h 18.707 v 8.789 h 17.574 v -8.789 h 18.711 v 8.789 h 17.574 v -8.789 h 18.707 v 8.789 h 17.575 v -8.789 h 18.711 v 8.789 h 17.574 v 8.313 h -8.789 v 15.496 h 8.789 v 16.632 h -8.789 v 15.497 h 8.789 v 16.628 h -8.789 v 15.497 h 8.789 v 8.312 h -17.574 v 8.789 H 556.43 v -8.789 h -17.575 v 8.789 h -18.707 v -8.789 h -17.574 v 8.789 h -18.711 v -8.789 h -17.574 v 8.789 h -18.707 v -8.789 h -17.578 v 8.789 h -18.707 v -8.789 h -17.574 v -8.312 h 8.789 V 189.48 h -8.789 v -16.628 h 8.789 v -15.497 h -8.789 v -16.632 h 8.789 v -15.496 h -8.789 v -8.313"
                   style="fill:none;stroke:#0000ff;stroke-width:0.283465;stroke-linecap:butt;stroke-linejoin:miter;stroke-miterlimit:4;stroke-dasharray:none;stroke-opacity:1"
                   id="path46" /></g><g
                 id="g52"><path
                   d="m 393.723,447.434 h 17.574 v -8.789 h 18.707 v 8.789 h 17.578 v -8.789 h 18.707 v 8.789 h 17.574 v -8.789 h 18.711 v 8.789 h 17.574 v -8.789 h 18.707 v 8.789 h 17.575 v -8.789 h 18.711 v 8.789 h 17.574 v 8.312 h -8.789 v 15.496 h 8.789 v 16.633 h -8.789 v 15.496 h 8.789 V 520 h -8.789 v 15.496 h 8.789 v 8.313 h -17.574 v 8.789 H 556.43 v -8.789 h -17.575 v 8.789 h -18.707 v -8.789 h -17.574 v 8.789 h -18.711 v -8.789 h -17.574 v 8.789 h -18.707 v -8.789 h -17.578 v 8.789 h -18.707 v -8.789 h -17.574 v -8.313 h 8.789 V 520 h -8.789 v -16.629 h 8.789 v -15.496 h -8.789 v -16.633 h 8.789 v -15.496 h -8.789 v -8.312"
                   style="fill:none;stroke:#0000ff;stroke-width:0.283465;stroke-linecap:butt;stroke-linejoin:miter;stroke-miterlimit:4;stroke-dasharray:none;stroke-opacity:1"
                   id="path50" /></g></g></g></g></g><path
         d="m 79.679859,317.93307 c 0,3.91077 -3.173355,7.08412 -7.084117,7.08412 -3.915757,0 -7.089112,-3.17335 -7.089112,-7.08412 0,-3.91576 3.173355,-7.08911 7.089112,-7.08911 3.910762,0 7.084117,3.17335 7.084117,7.08911 z"
         style="fill:#cccccc;fill-opacity:1;fill-rule:evenodd;stroke:none;stroke-width:1.24984"
         id="path60" /><path
         d="m 248.88346,322.0207 c 0,3.91077 -3.17335,7.08412 -7.08412,7.08412 -3.91576,0 -7.08911,-3.17335 -7.08911,-7.08412 0,-3.91576 3.17335,-7.08911 7.08911,-7.08911 3.91077,0 7.08412,3.17335 7.08412,7.08911 z"
         style="fill:#cccccc;fill-opacity:1;fill-rule:evenodd;stroke:none;stroke-width:1.24984"
         id="path62" /><path
         d="m 160.67838,287.46173 c 0,3.91077 -3.17335,7.08412 -7.08412,7.08412 -3.91576,0 -7.08911,-3.17335 -7.08911,-7.08412 0,-3.91576 3.17335,-7.08911 7.08911,-7.08911 3.91077,0 7.08412,3.17335 7.08412,7.08911 z"
         style="fill:#cccccc;fill-opacity:1;fill-rule:evenodd;stroke:none;stroke-width:1.24984"
         id="path64" /><path
         d="m 334.85895,286.37345 c 0,3.91078 -3.17335,7.08412 -7.08412,7.08412 -3.91576,0 -7.08911,-3.17334 -7.08911,-7.08412 0,-3.91576 3.17335,-7.08911 7.08911,-7.08911 3.91077,0 7.08412,3.17335 7.08412,7.08911 z"
         style="fill:#cccccc;fill-opacity:1;fill-rule:evenodd;stroke:none;stroke-width:1.24985"
         id="path66" /><text
         transform="translate(35.082206,524.44115)"
         style="font-variant:normal;font-weight:normal;font-size:39.4147px;font-family:Gabriola;-inkscape-font-specification:Gabriola;writing-mode:lr-tb;fill:#000000;fill-opacity:1;fill-rule:nonzero;stroke:none"
         id="text78"><tspan
           x="0 11.390859 18.958488 43.316795 57.309025 74.178535 81.036697 92.427559 105.90739 118.67777"
           y="0"
           sodipodi:role="line"
           id="tspan76">simon says</tspan></text><text
         transform="translate(35.353765,741.2844)"
         style="font-variant:normal;font-weight:normal;font-size:27.7819px;font-family:Gabriola;-inkscape-font-specification:Gabriola;writing-mode:lr-tb;fill:#000000;fill-opacity:1;fill-rule:nonzero;stroke:none"
         id="text82"><tspan
           x="0 10.77936 20.697481 28.865347 34.199463 46.090096 50.924137 56.063782 64.84285 74.705406 86.596039 98.486671"
           y="0"
           sodipodi:role="line"
           id="tspan80">karin ivonne</tspan></text><rect
         style="fill:#ff0000;stroke-width:0.712499"
         id="rect102"
         width="32.31496"
         height="32.31496"
         x="49.797283"
         y="348.67889" /><rect
         style="fill:#ff0000;stroke-width:0.712501"
         id="rect104"
         width="32.31496"
         height="32.31496"
         x="130.8038"
         y="314.00345" /><rect
         style="fill:#ff0000;stroke-width:0.7125"
         id="rect106"
         width="32.31496"
         height="32.31496"
         x="307.68622"
         y="314.74661" /><rect
         style="fill:#ff0000;stroke-width:0.7125"
         id="rect108"
         width="32.31496"
         height="32.31496"
         x="221.10301"
         y="348.67889" /></g></g></svg>
